# xmcd
#
# Track frame offsets:
#	185
#	13282
#	30150
#	52152
#	63895
#	83660
#	108732
#	131652
#	152220
#	168607
#	188130
#	207850
#
# Disc length: 3457
#
# Revision: 2
# Processed by: cddbd v1.5.1PL0 Copyright (c) Steve Scherf et al.
# Submitted via: CDex 1.51
# Normalized: r1:DSETVAR1
#
DISCID=a20d7f0c
DTITLE=Various Artist - mousikes toy kosmoy CD1
DYEAR=1900
DGENRE=New Age
TTITLE0=angelo branduardi - vanita di vanita
TTITLE1=madredeus - o pastor
TTITLE2=elbosco - nirvana
TTITLE3=dead can dance - saltarello
TTITLE4=variazioni - arabian nite
TTITLE5=sacred spirit ii - the sun wont talk no more
TTITLE6=vanessa mae - theme from caravans
TTITLE7=barry adamson - something wicked this way comes
TTITLE8=penguin cafe orchestra - music for a found harmonioum
TTITLE9=khaled - aicha
TTITLE10=yosefa - taj mahal
TTITLE11=john mc lauhlin - mediterranean sundance
EXTD=
EXTT0=
EXTT1=
EXTT2=
EXTT3=
EXTT4=
EXTT5=
EXTT6=
EXTT7=
EXTT8=
EXTT9=
EXTT10=
EXTT11=
PLAYORDER=
